<svg xmlns="http://www.w3.org/2000/svg" xmlns:xlink="http://www.w3.org/1999/xlink" version="1.1" x="0px" y="0px" viewBox="0 0 100 125" enable-background="new 0 0 100 100" xml:space="preserve"><path d="M48.43,46.349c-11.571,0-20.985,9.414-20.985,20.984c0,11.571,9.414,20.985,20.985,20.985s20.984-9.414,20.984-20.985  C69.415,55.763,60.001,46.349,48.43,46.349z M48.43,48.349c3.057,0,5.937,0.743,8.498,2.032c-0.797,0.369-1.309,0.763-1.509,1.178  c-0.178,0.367-0.68,0.978-1.008,1.217c-0.714-1.611-3.008-4.447-4.398-4.335c-0.842,0.063-1.149,0.823-1.375,1.378  c-0.367,0.907-0.472,0.887-0.682,0.849c-1.546-0.282-3.82,0.249-5.063,1.182c-0.817,0.615-1.043,1.272-1.089,1.716  c-0.16,1.572,0.824,2.673,2.927,3.272c1.143,0.323,1.763-0.704,2.133-1.319c0.162-0.27,0.465-0.773,0.634-0.815  c0.042-0.007,0.175,0.01,0.414,0.155l0.63,0.375c0.778,0.458,2.082,1.225,2.112,1.649c0.009,0.116-0.145,0.447-0.773,0.953  c-2.422,1.949-2.951,2.849-3.613,4.156l-0.214,0.418c-0.454,0.861-2.112,1.412-2.916,1.295c-1.077-0.15-1.554,0.446-1.709,0.709  c-0.5,0.851-0.044,1.989,0.549,2.769c0.074,0.098,0.136,0.188,0.186,0.268c-0.426-0.231-1.131-0.763-2.199-1.983  c-0.396-0.452-0.843-0.924-1.3-1.406c-1.362-1.437-2.906-3.065-3.097-4.285c-0.253-1.609-1.584-2.826-2.534-3.508  C36.483,51.483,42.091,48.349,48.43,48.349z M49.04,74.752c-0.218-0.167-0.46-0.329-0.71-0.495  c-0.931-0.618-1.501-1.036-1.501-1.799c0-1.74,0.058-2.196,0.627-2.686c0.05-0.043,0.213-0.146,0.616-0.146  c0.541,0,1.515,0.186,3.23,0.953c0.458,0.205,0.464,0.267,0.496,0.565c0.05,0.459,0.152,1.416,1.536,1.796  c0.337,0.092,0.741,0.173,1.167,0.256c0.633,0.124,1.949,0.382,2.126,0.67c-0.17,0.484-0.283,0.985-0.394,1.469  c-0.331,1.46-0.519,1.924-1.05,1.984c-1.672,0.188-2.499,1.524-3.229,2.702c-0.314,0.506-0.61,0.985-0.953,1.355  c-1.511,1.634-2.333,3.186-2.424,4.523c-0.393-0.659-0.633-1.567-0.327-2.757c0.095-0.371,0.232-0.84,0.385-1.36  C49.696,78.162,50.295,75.717,49.04,74.752z M50.583,86.187c-0.039-0.838,0.634-2.097,1.889-3.454  c0.473-0.512,0.835-1.096,1.185-1.66c0.648-1.047,1.08-1.692,1.753-1.768c2.027-0.229,2.46-2.136,2.776-3.529  c0.102-0.449,0.197-0.873,0.329-1.248c0.263-0.747,0.083-1.313-0.113-1.656c-0.612-1.07-2.155-1.373-3.516-1.639  c-0.372-0.073-0.726-0.141-1.021-0.222c-0.028-0.008-0.052-0.015-0.072-0.022c-0.002-0.02-0.003-0.04-0.006-0.059  c-0.056-0.525-0.161-1.503-1.668-2.177c-1.85-0.827-4.48-1.78-5.968-0.497c-1.322,1.138-1.322,2.49-1.322,4.202  c0,1.875,1.384,2.794,2.395,3.465c0.176,0.117,0.348,0.23,0.506,0.346c0.208,0.78-0.643,3.689-1.013,4.951  c-0.159,0.545-0.303,1.037-0.402,1.425c-0.376,1.466-0.181,2.653,0.204,3.576c-9.574-0.962-17.073-9.065-17.073-18.888  c0-3.411,0.916-6.606,2.498-9.375c0.694,0.516,1.518,1.302,1.648,2.131c0.288,1.834,1.982,3.622,3.622,5.351  c0.438,0.462,0.867,0.914,1.247,1.348c1.697,1.938,3.035,2.84,4.209,2.84c0.672,0,1.24-0.337,1.521-0.902  c0.217-0.437,0.425-1.375-0.619-2.75c-0.068-0.09-0.125-0.177-0.172-0.257c1.482-0.021,3.606-0.821,4.425-2.376l0.229-0.445  c0.526-1.038,0.873-1.724,3.083-3.501c1.086-0.874,1.581-1.742,1.515-2.656c-0.107-1.47-1.625-2.364-3.094-3.228l-0.606-0.361  c-0.672-0.407-1.32-0.538-1.931-0.387c-0.976,0.241-1.491,1.099-1.868,1.726c-0.059,0.097-0.133,0.221-0.2,0.324  c-1.22-0.413-1.177-0.833-1.156-1.04c0.11-0.483,2.294-1.414,3.806-1.137c1.764,0.323,2.49-1.099,2.819-1.887  c0.659,0.569,1.69,1.739,2.176,2.863c0.462,1.07,1.231,1.245,1.649,1.254c0.012,0,0.023,0,0.036,0c1.474,0,2.641-1.905,2.892-2.347  c0.239-0.202,1.092-0.555,1.99-0.831c2.287,1.574,4.201,3.642,5.616,6.04c-0.492,0.034-0.991,0.163-1.42,0.478  c-0.446,0.328-0.964,0.965-0.894,2.145c0.119,1.878-0.027,2.637-1.281,4.391c-0.836,1.161-1.006,2.646-0.457,3.973  c0.588,1.417,1.862,2.414,3.414,2.667l0.422,0.066c0.953,0.15,1.855,0.293,2.281,0.427C64.966,79.476,58.517,85.286,50.583,86.187z   M67.217,69.917c-0.596-0.166-1.353-0.289-2.346-0.445l-0.415-0.065c-0.859-0.14-1.563-0.685-1.884-1.458  c-0.286-0.692-0.202-1.436,0.234-2.042c1.568-2.195,1.797-3.397,1.652-5.679c-0.006-0.101-0.01-0.343,0.081-0.41  c0.185-0.135,0.725-0.137,1.327,0.024c0.992,2.3,1.547,4.831,1.547,7.491C67.415,68.212,67.334,69.07,67.217,69.917z M66.016,32.006  c0.019-0.419-0.228-0.806-0.615-0.967c-0.387-0.162-0.835-0.063-1.12,0.246c-3.107,3.378-4.813,6.6-5.252,9.978  c-4-5.636-3.943-9.666-1.913-17.564c2.033-7.905-1.521-11.702-4.372-13.87c-0.29-0.222-0.679-0.265-1.012-0.118  c-0.333,0.148-0.56,0.466-0.59,0.83c-0.372,4.402-2.91,6.893-6.751,10.662c-2.041,2.002-4.354,4.272-6.788,7.295  c-4.925,6.114-7.06,11.021-7.219,16.699c-1.081-0.754-1.967-2.171-1.774-5.537c0.023-0.408-0.204-0.79-0.574-0.963  c-0.371-0.173-0.81-0.103-1.108,0.176c-11.733,11.008-11.095,32.449-2.715,43.548c6.213,8.23,14.7,12.577,24.311,12.577  c1.875,0,3.793-0.166,5.745-0.5c8.33-1.428,15.262-7.773,17.889-11.69c8.945-13.342,3.508-24.935-1.289-35.164  C68.264,42.094,65.805,36.849,66.016,32.006z M70.496,81.695c-2.435,3.631-8.855,9.512-16.565,10.833  c-11.18,1.92-21.169-2.101-28.122-11.311c-7.466-9.889-8.422-28.486,0.855-39.186c0.304,2.66,1.478,4.399,3.604,5.392  c0.46,0.215,0.99,0.18,1.421-0.096c0.434-0.277,0.69-0.749,0.688-1.263c-0.034-4.692,1.107-9.262,6.785-16.311  c2.361-2.933,4.63-5.159,6.631-7.123c3.377-3.314,6.133-6.019,7.061-10.087c2.092,2.023,3.751,5.118,2.326,10.658  c-2.273,8.848-2.275,13.728,3.61,21.055c0.326,0.401,0.866,0.548,1.351,0.371c0.483-0.179,0.797-0.645,0.78-1.161  c-0.098-3.024,0.927-5.891,3.201-8.884c0.517,4.49,2.675,9.09,4.937,13.914C73.852,58.719,78.811,69.292,70.496,81.695z   M31.046,28.483c-0.453-0.316-0.563-0.939-0.248-1.392c2.216-3.173,4.849-5.733,7.172-7.992c1.644-1.598,3.063-2.979,4.061-4.298  c0.332-0.441,0.962-0.528,1.4-0.195c0.441,0.333,0.528,0.96,0.195,1.401c-1.089,1.44-2.631,2.939-4.263,4.526  c-2.259,2.196-4.818,4.685-6.925,7.702c-0.195,0.279-0.506,0.428-0.821,0.428C31.42,28.663,31.22,28.604,31.046,28.483z   M44.564,10.668c1.085-2.607,0.981-4.587,0.98-4.606c-0.032-0.55,0.385-1.024,0.935-1.06c0.568-0.026,1.024,0.38,1.062,0.929  c0.006,0.098,0.147,2.437-1.131,5.506c-0.159,0.384-0.531,0.616-0.923,0.616c-0.129,0-0.259-0.025-0.385-0.077  C44.592,11.764,44.351,11.178,44.564,10.668z M81.195,60.012c-0.068,0.014-0.137,0.021-0.203,0.021  c-0.465,0-0.881-0.325-0.979-0.798c-0.933-4.528-3.209-8.939-6.846-15.666c-5.751-10.636-4.109-17.63-4.037-17.922  c0.134-0.537,0.676-0.862,1.212-0.729c0.534,0.133,0.861,0.673,0.73,1.208c-0.016,0.065-1.495,6.599,3.854,16.493  c3.724,6.888,6.057,11.417,7.045,16.213C82.083,59.371,81.736,59.9,81.195,60.012z"/><text x="0" y="115" fill="#000000" font-size="5px" font-weight="bold" font-family="'Helvetica Neue', Helvetica, Arial-Unicode, Arial, Sans-serif">Created by Laymik</text><text x="0" y="120" fill="#000000" font-size="5px" font-weight="bold" font-family="'Helvetica Neue', Helvetica, Arial-Unicode, Arial, Sans-serif">from the Noun Project</text></svg>